# xmcd CD database file
#
# Track frame offsets:
#	150
#	11965
#	40802
#	88892
#	103825
#	142000
#	171150
#	205465
#	227055
#
# Disc length: 3437 seconds
#
# Revision: 0
# Processed by: cddbd v1.5.1PL0 Copyright (c) Steve Scherf et al.
# Submitted via: CDex 1.51
#
DISCID=810d6b09
DTITLE=Michael Blake  - Blake Tartare
DYEAR=2002
DGENRE=Jazz
TTITLE0=Flipper
TTITLE1=Lemmy Caution
TTITLE2=A Messy Business
TTITLE3=Cuban Sandwich
TTITLE4=Feast
TTITLE5=Languidity
TTITLE6=Meditation (For A Pair of Wirecutters)
TTITLE7=A Hole Is To Dig
TTITLE8=Neil's Toy Train
EXTD=YEAR: 2002
EXTT0=
EXTT1=
EXTT2=
EXTT3=
EXTT4=
EXTT5=
EXTT6=
EXTT7=
EXTT8=
PLAYORDER=
